<svg width="14" height="14" viewBox="0 0 14 14" fill="none" xmlns="http://www.w3.org/2000/svg">
<path d="M6.99997 7.8181L4.14163 10.6764C4.03469 10.7834 3.89858 10.8368 3.7333 10.8368C3.56802 10.8368 3.43191 10.7834 3.32497 10.6764C3.21802 10.5695 3.16455 10.4334 3.16455 10.2681C3.16455 10.1028 3.21802 9.96671 3.32497 9.85977L6.1833 7.00143L3.32497 4.1431C3.21802 4.03615 3.16455 3.90004 3.16455 3.73477C3.16455 3.56949 3.21802 3.43338 3.32497 3.32643C3.43191 3.21949 3.56802 3.16602 3.7333 3.16602C3.89858 3.16602 4.03469 3.21949 4.14163 3.32643L6.99997 6.18477L9.8583 3.32643C9.96525 3.21949 10.1014 3.16602 10.2666 3.16602C10.4319 3.16602 10.568 3.21949 10.675 3.32643C10.7819 3.43338 10.8354 3.56949 10.8354 3.73477C10.8354 3.90004 10.7819 4.03615 10.675 4.1431L7.81663 7.00143L10.675 9.85977C10.7819 9.96671 10.8354 10.1028 10.8354 10.2681C10.8354 10.4334 10.7819 10.5695 10.675 10.6764C10.568 10.7834 10.4319 10.8368 10.2666 10.8368C10.1014 10.8368 9.96525 10.7834 9.8583 10.6764L6.99997 7.8181Z" fill="white"/>
</svg>
