<svg width="31" height="31" viewBox="0 0 31 31" fill="none" xmlns="http://www.w3.org/2000/svg">
<path d="M29.7913 12.0204C29.5906 11.0522 29.2954 10.1076 28.9058 9.18655C28.5279 8.28915 28.0556 7.43898 27.5124 6.63604C26.9693 5.83311 26.3552 5.10101 25.6822 4.41616C24.9973 3.7313 24.2416 3.10548 23.4623 2.58593C22.6594 2.04277 21.7856 1.57045 20.9118 1.1926C20.0026 0.802938 19.058 0.507741 18.0779 0.307006C17.086 0.106272 16.0706 0 15.0433 0C14.016 0 13.0005 0.106272 12.0086 0.307006C11.0404 0.507741 10.0958 0.802938 9.18655 1.1926C8.28915 1.57045 7.43898 2.04277 6.63604 2.58593C5.83311 3.12909 5.08921 3.74311 4.41616 4.41616C3.74311 5.08921 3.11729 5.85672 2.58593 6.63604C2.04277 7.43898 1.57045 8.28915 1.1926 9.18655C0.802938 10.0958 0.507741 11.0404 0.307006 12.0204C0.106272 13.0123 0 14.0278 0 15.0551C0 16.0824 0.106272 17.0978 0.307006 18.0897C0.507741 19.058 0.802938 20.0026 1.1926 20.9118C1.57045 21.8092 2.04277 22.6594 2.58593 23.4741C3.12909 24.2771 3.74311 25.0091 4.41616 25.694C5.10101 26.3789 5.85672 26.9929 6.63604 27.5242C7.43898 28.0674 8.31277 28.5397 9.18655 28.9176C10.0958 29.3072 11.0404 29.6024 12.0086 29.8032C13.0005 30.0039 14.016 30.1102 15.0433 30.1102C16.0706 30.1102 17.0742 30.0039 18.0779 29.8032C19.0462 29.6024 19.9908 29.3072 20.9118 28.9176C21.8092 28.5397 22.6594 28.0674 23.4623 27.5242C24.2652 26.9811 25.0091 26.3671 25.6822 25.694C26.3671 25.0091 26.9811 24.2534 27.5124 23.4741C28.0556 22.6712 28.5279 21.8092 28.9058 20.9118C29.2954 20.0026 29.5906 19.058 29.7913 18.0897C29.9921 17.0978 30.0984 16.0824 30.0984 15.0551C30.0984 14.0278 29.9921 13.0123 29.7913 12.0204ZM15.0433 2.19627C18.3023 2.19627 21.266 3.41248 23.5332 5.40802C23.4977 5.45525 21.6793 8.24192 16.8145 10.0603C14.6182 6.02203 12.1976 2.81028 11.9968 2.55051C12.9769 2.32616 13.9924 2.19627 15.0433 2.19627ZM11.9378 2.57412C11.9378 2.56231 11.9496 2.56231 11.9378 2.57412V2.57412ZM9.5526 3.42429C9.72971 3.64864 12.1031 6.88401 14.3348 10.8397C8.15926 12.4691 2.79847 12.4101 2.46785 12.3983C3.2826 8.41904 5.96299 5.11282 9.5526 3.42429ZM5.46706 23.6394C3.42429 21.3723 2.17265 18.3613 2.17265 15.0551C2.17265 14.9134 2.18446 14.7835 2.18446 14.6536C2.40881 14.6536 8.76147 14.8071 15.3857 12.8234C15.7517 13.5437 16.106 14.2876 16.4366 15.0078C16.2713 15.0551 16.0942 15.1023 15.9289 15.1613C8.98582 17.4049 5.46706 23.6394 5.46706 23.6394ZM15.0433 27.9139C12.0441 27.9139 9.31644 26.8866 7.13197 25.1863C7.17921 25.0918 9.67067 19.79 17.2277 17.1569C17.2514 17.1451 17.2868 17.1333 17.3104 17.1333C19.117 21.8328 19.8609 25.7648 20.0498 26.8984C18.5148 27.5478 16.8145 27.9139 15.0433 27.9139ZM22.2225 25.7176C22.0926 24.9383 21.4077 21.1716 19.7192 16.5311C23.8756 15.8698 27.477 17.0034 27.7368 17.0978C27.17 20.6756 25.1036 23.7693 22.2225 25.7176ZM18.9399 14.5001C18.8454 14.2758 18.751 14.0632 18.6565 13.8389C18.3849 13.2012 18.1015 12.5872 17.7945 11.9732C22.8719 9.90683 24.9383 6.91943 24.9619 6.88401C26.7567 9.08028 27.8548 11.8788 27.8903 14.9252C27.7132 14.8898 23.356 13.9451 18.9399 14.5001Z" fill="#E7E7E7"/>
</svg>
