<svg width="36" height="23" viewBox="0 0 36 23" fill="none" xmlns="http://www.w3.org/2000/svg">
<path d="M14.3962 10.0997C14.3962 10.0997 17.7714 9.84915 17.7714 5.89005C17.7714 1.93133 15.0098 0 11.5113 0H5.07202H4.88287H0V22.1222H4.88287H5.07202H11.5113C11.5113 22.1222 18.5385 22.3445 18.5385 15.5929C18.5385 15.5929 18.8453 10.0997 14.3962 10.0997ZM5.07202 3.93229H10.6828H11.5116C11.5116 3.93229 13.0766 3.93229 13.0766 6.23372C13.0766 8.53516 12.1558 8.86878 11.1125 8.86878H5.07202V3.93229ZM11.2145 18.1911H5.07202V12.2787H11.5113C11.5113 12.2787 13.8436 12.2489 13.8436 15.317C13.8436 17.8753 12.1379 18.1654 11.2145 18.1911Z" fill="#E7E7E7"/>
<path d="M32.2809 1.30566H23.1533V4.03008H32.2809V1.30566Z" fill="#E7E7E7"/>
<path d="M27.9111 5.63184C19.4039 5.63184 19.4114 14.1309 19.4114 14.1309C19.4114 14.1309 18.8283 22.5878 27.9115 22.5878C27.9115 22.5878 35.4816 23.0205 35.4816 16.7045H31.5884C31.5884 16.7045 31.7183 19.0841 28.0415 19.0841C28.0415 19.0841 24.1486 19.3444 24.1486 15.2341H35.6111C35.6111 15.2341 36.8652 5.63184 27.9111 5.63184ZM31.3717 12.2815H24.1047C24.1047 12.2815 24.5802 8.87157 27.9975 8.87157C31.4152 8.8712 31.3717 12.2815 31.3717 12.2815Z" fill="#E7E7E7"/>
</svg>
