<svg width="27" height="27" viewBox="0 0 27 27" fill="none" xmlns="http://www.w3.org/2000/svg">
<path d="M4.45949 22.296C3.84637 22.296 3.3217 22.0779 2.88546 21.6417C2.44922 21.2054 2.23072 20.6804 2.22998 20.0665V6.68947C2.22998 6.07635 2.44847 5.55168 2.88546 5.11544C3.32244 4.6792 3.84712 4.4607 4.45949 4.45996H22.2956C22.9087 4.45996 23.4337 4.67845 23.8707 5.11544C24.3077 5.55242 24.5258 6.0771 24.5251 6.68947V20.0665C24.5251 20.6796 24.3069 21.2047 23.8707 21.6417C23.4345 22.0786 22.9094 22.2968 22.2956 22.296H4.45949ZM13.3775 14.2977C13.4704 14.2977 13.5681 14.2835 13.6707 14.2553C13.7733 14.2271 13.8706 14.1854 13.9628 14.1305L21.8497 9.19767C21.9983 9.10477 22.1098 8.98884 22.1841 8.84986C22.2584 8.71089 22.2956 8.55743 22.2956 8.38947C22.2956 8.01788 22.1376 7.7392 21.8218 7.5534C21.5059 7.36761 21.1808 7.3769 20.8464 7.58127L13.3775 12.2632L5.90867 7.58127C5.57424 7.3769 5.24911 7.37244 4.93326 7.5679C4.61741 7.76335 4.45949 8.03721 4.45949 8.38947C4.45949 8.57526 4.49665 8.73802 4.57096 8.87773C4.64528 9.01745 4.75676 9.12409 4.90539 9.19767L12.7923 14.1305C12.8852 14.1862 12.9829 14.2282 13.0855 14.2564C13.188 14.2847 13.2854 14.2984 13.3775 14.2977Z" fill="white"/>
</svg>
