<svg width="16" height="32" viewBox="0 0 16 32" fill="none" xmlns="http://www.w3.org/2000/svg">
<path fill-rule="evenodd" clip-rule="evenodd" d="M3.38142 15.7366V30.8229C3.38142 31.0831 3.51147 31.2131 3.77158 31.2131H9.7541C10.0142 31.2131 10.1443 31.0831 10.1443 30.8229V15.4765H14.5661C14.8262 15.4765 14.9563 15.3464 14.9563 15.0863L15.3464 10.4044C15.3464 10.1443 15.2164 10.0142 14.9563 10.0142H10.1443V6.76284C10.1443 5.98251 10.7945 5.33224 11.7049 5.33224H15.0863C15.4765 5.33224 15.6066 5.20219 15.6066 4.94208V0.390164C15.6066 0.130055 15.4765 0 15.2164 0H9.49399C6.11257 0 3.38142 2.47104 3.38142 5.59235V10.0142H0.390164C0.130055 10.0142 0 10.1443 0 10.4044V15.0863C0 15.3464 0.130055 15.4765 0.390164 15.4765H3.38142V15.7366Z" fill="white"/>
</svg>
