<svg width="32" height="32" viewBox="0 0 32 32" fill="none" xmlns="http://www.w3.org/2000/svg">
<g clip-path="url(#clip0_616_2119)">
<path d="M9.14246 0.110244C7.48192 0.188537 6.34797 0.453589 5.35657 0.842972C4.3307 1.24289 3.46102 1.77937 2.59577 2.64774C1.73064 3.51612 1.19768 4.38631 0.800754 5.414C0.416573 6.40736 0.156204 7.54235 0.0828528 9.2038C0.00950198 10.8652 -0.00675485 11.3994 0.00143859 15.6376C0.00950198 19.8756 0.0282298 20.4068 0.108734 22.0718C0.188067 23.7319 0.452078 24.8656 0.841591 25.8573C1.24216 26.8833 1.77798 27.7526 2.64675 28.6181C3.51538 29.4836 4.38493 30.0153 5.41496 30.4128C6.40754 30.7965 7.54279 31.0581 9.20397 31.1308C10.8652 31.2036 11.3998 31.2205 15.6367 31.2123C19.8737 31.2042 20.4071 31.1854 22.0716 31.1064C23.7363 31.0275 24.8639 30.7615 25.8559 30.3738C26.8819 29.9725 27.7518 29.4374 28.6167 28.5685C29.4816 27.6995 30.0141 26.8287 30.4108 25.8005C30.7954 24.8079 31.0567 23.6728 31.1287 22.0127C31.2015 20.3469 31.2187 19.8151 31.2106 15.5776C31.2025 11.3401 31.1833 10.8088 31.1044 9.14449C31.0254 7.48018 30.761 6.35001 30.3718 5.35769C29.9707 4.33169 29.4354 3.46305 28.5672 2.59689C27.6988 1.73073 26.8272 1.19854 25.7995 0.802785C24.8061 0.418474 23.6716 0.156674 22.0105 0.0848836C20.3493 0.0130935 19.8146 -0.00550433 15.5761 0.00281916C11.3377 0.0108826 10.807 0.0290902 9.14246 0.110244ZM9.32479 28.3231C7.80316 28.2569 6.97692 28.0041 6.42627 27.7925C5.69718 27.5116 5.17774 27.172 4.62904 26.6285C4.08021 26.0851 3.74324 25.5639 3.45855 24.8364C3.24474 24.2857 2.98723 23.4604 2.91609 21.9387C2.83871 20.2942 2.82245 19.8004 2.81335 15.6337C2.80425 11.4671 2.82024 10.9738 2.89229 9.32865C2.95732 7.80831 3.21171 6.98116 3.42292 6.43077C3.70383 5.70077 4.04224 5.18225 4.5869 4.63393C5.13157 4.08549 5.65127 3.74774 6.37945 3.46305C6.92958 3.24833 7.75478 2.99304 9.27576 2.9206C10.9216 2.84256 11.4148 2.82696 15.5808 2.81785C19.7469 2.80875 20.2413 2.82435 21.8878 2.89693C23.4081 2.96299 24.2357 3.21491 24.7854 3.42755C25.5148 3.70847 26.034 4.04583 26.5823 4.59154C27.1307 5.13699 27.4687 5.65486 27.7534 6.3846C27.9684 6.93304 28.2238 7.75798 28.2956 9.28001C28.3739 10.9258 28.3917 11.4194 28.3991 15.5851C28.4067 19.7507 28.392 20.2454 28.3198 21.8901C28.2535 23.4117 28.0012 24.2382 27.7892 24.7895C27.5083 25.5184 27.1697 26.0381 26.6247 26.5861C26.0797 27.1343 25.5607 27.4719 24.8321 27.7566C24.2828 27.9711 23.4565 28.227 21.9368 28.2995C20.2909 28.3768 19.7977 28.3931 15.6301 28.4022C11.4625 28.4113 10.9706 28.3944 9.32479 28.3231ZM22.0476 7.26637C22.0483 7.63681 22.1587 7.99874 22.3651 8.30639C22.5714 8.61404 22.8643 8.85359 23.2068 8.99474C23.5493 9.1359 23.926 9.17231 24.2891 9.09938C24.6523 9.02645 24.9857 8.84745 25.2472 8.58502C25.5086 8.32259 25.6864 7.98852 25.7579 7.62507C25.8295 7.26161 25.7917 6.8851 25.6492 6.54314C25.5068 6.20118 25.2662 5.90915 24.9577 5.70397C24.6493 5.49879 24.287 5.38969 23.9165 5.39046C23.42 5.3915 22.9442 5.58969 22.5937 5.94147C22.2432 6.29325 22.0468 6.76981 22.0476 7.26637ZM7.59273 15.6232C7.60144 20.0492 11.196 23.6289 15.621 23.6206C20.0462 23.6122 23.6285 20.018 23.6201 15.592C23.6117 11.1659 20.0163 7.58514 15.5906 7.59385C11.1648 7.60256 7.5844 11.1977 7.59273 15.6232ZM10.4039 15.6176C10.4018 14.5887 10.7049 13.5823 11.2749 12.7257C11.8448 11.8691 12.6559 11.2007 13.6057 10.8051C14.5555 10.4094 15.6013 10.3044 16.6108 10.5031C17.6203 10.7018 18.5482 11.1954 19.2772 11.9215C20.0062 12.6476 20.5035 13.5735 20.7062 14.5823C20.909 15.591 20.808 16.6372 20.4162 17.5885C20.0243 18.5399 19.3592 19.3537 18.5049 19.927C17.6505 20.5003 16.6453 20.8074 15.6164 20.8095C14.9333 20.8109 14.2565 20.6778 13.6248 20.4176C12.993 20.1574 12.4187 19.7754 11.9347 19.2933C11.4507 18.8111 11.0663 18.2384 10.8037 17.6077C10.541 16.977 10.4051 16.3008 10.4039 15.6176Z" fill="white"/>
</g>
<defs>
<clipPath id="clip0_616_2119">
<rect width="31.2131" height="31.2131" fill="white"/>
</clipPath>
</defs>
</svg>
