<svg width="27" height="27" viewBox="0 0 27 27" fill="none" xmlns="http://www.w3.org/2000/svg">
<path d="M3.21576 0C1.43868 0 0.000287506 1.44091 0 3.21387C0 4.98856 1.43839 6.42918 3.21605 6.42918C4.98881 6.42918 6.42922 4.98856 6.42922 3.21387C6.42922 1.44062 4.98852 0 3.21576 0Z" fill="#E7E7E7"/>
<path d="M5.98703 8.86621H0.441895V26.7062H5.98703V8.86621Z" fill="#E7E7E7"/>
<path d="M20.1035 8.42578C17.4061 8.42578 15.5974 9.90464 14.8571 11.307H14.7829V8.86938H9.46464H9.46436V26.7091H15.0046V17.8837C15.0046 15.557 15.4476 13.3034 18.3325 13.3034C21.1759 13.3034 21.2139 15.9644 21.2139 18.0329V26.7088H26.755V16.9238C26.755 12.1206 25.7185 8.42578 20.1035 8.42578Z" fill="#E7E7E7"/>
</svg>
