<svg width="27" height="27" viewBox="0 0 27 27" fill="none" xmlns="http://www.w3.org/2000/svg">
<path d="M13.3775 12.8197C12.6384 12.8197 11.9295 12.526 11.4069 12.0034C10.8842 11.4808 10.5906 10.7719 10.5906 10.0328C10.5906 9.29364 10.8842 8.58479 11.4069 8.06215C11.9295 7.5395 12.6384 7.24589 13.3775 7.24589C14.1166 7.24589 14.8255 7.5395 15.3481 8.06215C15.8708 8.58479 16.1644 9.29364 16.1644 10.0328C16.1644 10.3987 16.0923 10.7611 15.9522 11.0993C15.8122 11.4374 15.6069 11.7446 15.3481 12.0034C15.0893 12.2622 14.7821 12.4675 14.444 12.6075C14.1059 12.7476 13.7435 12.8197 13.3775 12.8197ZM13.3775 2.22949C11.3079 2.22949 9.32314 3.05162 7.85975 4.51502C6.39635 5.97842 5.57422 7.96321 5.57422 10.0328C5.57422 15.8852 13.3775 24.5246 13.3775 24.5246C13.3775 24.5246 21.1808 15.8852 21.1808 10.0328C21.1808 7.96321 20.3586 5.97842 18.8952 4.51502C17.4318 3.05162 15.4471 2.22949 13.3775 2.22949Z" fill="white"/>
</svg>
