<svg width="27" height="27" viewBox="0 0 27 27" fill="none" xmlns="http://www.w3.org/2000/svg">
<path d="M18.4558 14.387L17.9486 14.892C17.9486 14.892 16.7413 16.0914 13.4472 12.8163C10.1531 9.54114 11.3604 8.34167 11.3604 8.34167L11.6792 8.02285C12.4674 7.24029 12.542 5.98285 11.8542 5.06429L10.4496 3.18816C9.59798 2.05111 7.95372 1.90062 6.97831 2.87045L5.22814 4.60947C4.74545 5.09104 4.42218 5.71308 4.46119 6.40422C4.56152 8.17334 5.36191 11.978 9.82539 16.4169C14.5597 21.1234 19.002 21.3107 20.818 21.1413C21.3932 21.0878 21.8926 20.7957 22.295 20.3944L23.878 18.8204C24.9481 17.758 24.6472 15.9354 23.2782 15.1918L21.1491 14.0336C20.2506 13.5465 19.1581 13.6891 18.4558 14.387Z" fill="white"/>
</svg>
